<?xml version="1.0" encoding="UTF-8" standalone="no"?>
<!DOCTYPE svg PUBLIC "-//W3C//DTD SVG 1.1//EN" "http://www.w3.org/Graphics/SVG/1.1/DTD/svg11.dtd">
<svg width="100%" height="100%" viewBox="0 0 32 32" version="1.1" xmlns="http://www.w3.org/2000/svg" xmlns:xlink="http://www.w3.org/1999/xlink" xml:space="preserve" xmlns:serif="http://www.serif.com/" style="fill-rule:evenodd;clip-rule:evenodd;stroke-linejoin:round;stroke-miterlimit:2;">
    <g transform="matrix(1,0,0,1.16508,0,-1.89607)">
        <path d="M11.289,19.641L0.424,19.641L0.424,11.08L11.289,11.08L11.289,1.973L21.263,1.973L21.263,11.08L31.576,11.08L31.576,19.641L21.263,19.641L21.263,28.711L11.289,28.711L11.289,19.641Z" style="fill:rgb(235,235,235);"/>
        <path d="M11.289,19.641L0.424,19.641L0.424,11.08L11.289,11.08L11.289,1.973L21.263,1.973L21.263,11.08L31.576,11.08L31.576,19.641L21.263,19.641L21.263,28.711L11.289,28.711L11.289,19.641ZM11.567,19.641L11.567,28.473L20.985,28.473L20.985,19.641C20.985,19.509 21.109,19.402 21.263,19.402L31.298,19.402L31.298,11.318L21.263,11.318C21.109,11.318 20.985,11.212 20.985,11.08L20.985,2.212L11.567,2.212L11.567,11.08C11.567,11.212 11.442,11.318 11.289,11.318L0.702,11.318L0.702,19.402L11.289,19.402C11.442,19.402 11.567,19.509 11.567,19.641Z" style="fill:rgb(102,102,102);"/>
    </g>
    <g transform="matrix(1,0,0,1,-1.63395,-1.35279)">
        <path d="M17.634,3.353L21.284,10.653L13.984,10.653L17.634,3.353Z" style="fill:rgb(102,102,102);"/>
        <path d="M17.634,3.353L21.284,10.653L13.984,10.653L17.634,3.353ZM17.634,3.973C17.634,3.973 14.433,10.375 14.433,10.375L20.835,10.375L17.634,3.973Z" style="fill:rgb(102,102,102);"/>
    </g>
    <g transform="matrix(6.12323e-17,1,-1,6.12323e-17,33.3528,-1.63395)">
        <path d="M17.634,3.353L21.284,10.653L13.984,10.653L17.634,3.353Z" style="fill:rgb(102,102,102);"/>
        <path d="M17.634,3.353L21.284,10.653L13.984,10.653L17.634,3.353ZM17.634,3.973C17.634,3.973 14.433,10.375 14.433,10.375L20.835,10.375L17.634,3.973Z" style="fill:rgb(102,102,102);"/>
    </g>
    <g transform="matrix(-1,1.22465e-16,-1.22465e-16,-1,33.634,33.3528)">
        <path d="M17.634,3.353L21.284,10.653L13.984,10.653L17.634,3.353Z" style="fill:rgb(102,102,102);"/>
        <path d="M17.634,3.353L21.284,10.653L13.984,10.653L17.634,3.353ZM17.634,3.973C17.634,3.973 14.433,10.375 14.433,10.375L20.835,10.375L17.634,3.973Z" style="fill:rgb(102,102,102);"/>
    </g>
    <g transform="matrix(-1.83697e-16,-1,1,-1.83697e-16,-1.33687,33.6127)">
        <path d="M17.634,3.353L21.284,10.653L13.984,10.653L17.634,3.353Z" style="fill:rgb(102,102,102);"/>
        <path d="M17.634,3.353L21.284,10.653L13.984,10.653L17.634,3.353ZM17.634,3.973C17.634,3.973 14.433,10.375 14.433,10.375L20.835,10.375L17.634,3.973Z" style="fill:rgb(102,102,102);"/>
    </g>
</svg>
