<?xml version="1.0" encoding="UTF-8" standalone="no"?>
<!DOCTYPE svg PUBLIC "-//W3C//DTD SVG 1.1//EN" "http://www.w3.org/Graphics/SVG/1.1/DTD/svg11.dtd">
<svg width="100%" height="100%" viewBox="0 0 32 32" version="1.1" xmlns="http://www.w3.org/2000/svg" xmlns:xlink="http://www.w3.org/1999/xlink" xml:space="preserve" xmlns:serif="http://www.serif.com/" style="fill-rule:evenodd;clip-rule:evenodd;stroke-linejoin:round;stroke-miterlimit:2;">
    <g transform="matrix(1,0,0,1,0,-77.6972)">
        <g id="vt_axis2d" transform="matrix(2.99151,0,0,2.8775,45.1623,75.4322)">
            <rect x="-15.097" y="0.787" width="10.697" height="11.121" style="fill:none;"/>
            <clipPath id="_clip1">
                <rect x="-15.097" y="0.787" width="10.697" height="11.121"/>
            </clipPath>
            <g clip-path="url(#_clip1)">
                <g transform="matrix(0.391767,0,0,0.416391,-43.1614,-16.5941)">
                    <path d="M98.94,48.419L98.94,61.773C98.94,65.458 95.882,68.45 92.114,68.45L78.462,68.45C74.695,68.45 71.636,65.458 71.636,61.773L71.636,48.419C71.636,44.734 74.695,41.743 78.462,41.743L92.114,41.743C95.882,41.743 98.94,44.734 98.94,48.419ZM96.466,48.419C96.466,46.07 94.516,44.163 92.114,44.163L78.462,44.163C76.06,44.163 74.11,46.07 74.11,48.419L74.11,61.773C74.11,64.122 76.06,66.03 78.462,66.03L92.114,66.03C94.516,66.03 96.466,64.122 96.466,61.773L96.466,48.419Z" style="fill:rgb(253,150,0);"/>
                </g>
                <g transform="matrix(0.334279,0,0,0.347524,-18.1375,-0.117391)">
                    <g transform="matrix(20.88,0,0,24,11.6286,27.2968)">
                        <path d="M0.301,-0.725C0.331,-0.725 0.359,-0.72 0.386,-0.711C0.412,-0.702 0.435,-0.689 0.454,-0.672C0.473,-0.655 0.488,-0.634 0.499,-0.609C0.51,-0.584 0.516,-0.556 0.516,-0.525C0.516,-0.498 0.511,-0.474 0.504,-0.451C0.496,-0.428 0.485,-0.407 0.471,-0.386C0.457,-0.365 0.442,-0.345 0.424,-0.325C0.406,-0.306 0.387,-0.286 0.367,-0.266L0.179,-0.073C0.192,-0.076 0.205,-0.079 0.219,-0.081C0.233,-0.083 0.246,-0.085 0.259,-0.085L0.499,-0.085C0.508,-0.085 0.516,-0.082 0.522,-0.076C0.527,-0.07 0.53,-0.063 0.53,-0.054L0.53,-0L0.052,-0L0.052,-0.031C0.052,-0.037 0.053,-0.043 0.056,-0.05C0.058,-0.057 0.062,-0.063 0.068,-0.069L0.298,-0.299C0.317,-0.318 0.334,-0.337 0.35,-0.355C0.365,-0.373 0.379,-0.391 0.39,-0.409C0.401,-0.427 0.41,-0.445 0.416,-0.463C0.422,-0.482 0.424,-0.501 0.425,-0.523C0.424,-0.544 0.421,-0.562 0.415,-0.578C0.408,-0.594 0.399,-0.607 0.387,-0.617C0.375,-0.627 0.362,-0.635 0.346,-0.64C0.33,-0.645 0.314,-0.648 0.296,-0.648C0.278,-0.648 0.261,-0.645 0.246,-0.64C0.23,-0.635 0.217,-0.627 0.205,-0.618C0.193,-0.608 0.183,-0.597 0.175,-0.584C0.167,-0.571 0.161,-0.557 0.158,-0.541C0.155,-0.531 0.151,-0.524 0.146,-0.52C0.14,-0.516 0.133,-0.514 0.125,-0.514C0.123,-0.514 0.121,-0.514 0.119,-0.514C0.117,-0.514 0.115,-0.514 0.113,-0.515L0.067,-0.523C0.071,-0.555 0.08,-0.584 0.094,-0.609C0.107,-0.634 0.124,-0.656 0.144,-0.673C0.165,-0.69 0.188,-0.702 0.215,-0.711C0.241,-0.72 0.27,-0.725 0.301,-0.725Z" style="fill:rgb(253,150,0);fill-rule:nonzero;"/>
                    </g>
                    <g transform="matrix(20.88,0,0,24,22.695,27.2968)">
                        <path d="M0.708,-0.358C0.708,-0.304 0.7,-0.256 0.683,-0.212C0.666,-0.167 0.642,-0.13 0.611,-0.099C0.58,-0.067 0.542,-0.043 0.499,-0.026C0.456,-0.009 0.408,-0 0.355,-0L0.087,-0L0.087,-0.717L0.355,-0.717C0.408,-0.717 0.456,-0.708 0.499,-0.691C0.542,-0.674 0.58,-0.649 0.611,-0.618C0.642,-0.586 0.666,-0.549 0.683,-0.505C0.7,-0.46 0.708,-0.412 0.708,-0.358ZM0.609,-0.358C0.609,-0.402 0.603,-0.441 0.591,-0.476C0.579,-0.511 0.562,-0.54 0.54,-0.564C0.518,-0.588 0.491,-0.606 0.46,-0.619C0.428,-0.632 0.393,-0.638 0.355,-0.638L0.185,-0.638L0.185,-0.079L0.355,-0.079C0.393,-0.079 0.428,-0.085 0.46,-0.098C0.491,-0.11 0.518,-0.128 0.54,-0.152C0.562,-0.176 0.579,-0.205 0.591,-0.24C0.603,-0.275 0.609,-0.314 0.609,-0.358Z" style="fill:rgb(253,150,0);fill-rule:nonzero;"/>
                    </g>
                </g>
            </g>
        </g>
    </g>
</svg>
