<?xml version="1.0" encoding="UTF-8" standalone="no"?>
<!DOCTYPE svg PUBLIC "-//W3C//DTD SVG 1.1//EN" "http://www.w3.org/Graphics/SVG/1.1/DTD/svg11.dtd">
<svg width="100%" height="100%" viewBox="0 0 32 32" version="1.1" xmlns="http://www.w3.org/2000/svg" xmlns:xlink="http://www.w3.org/1999/xlink" xml:space="preserve" xmlns:serif="http://www.serif.com/" style="fill-rule:evenodd;clip-rule:evenodd;stroke-linejoin:round;stroke-miterlimit:2;">
    <g transform="matrix(1,0,0,1,-105.29,-40.0231)">
        <g id="vt_axis1d" transform="matrix(2.99151,0,0,2.8775,150.452,37.7582)">
            <rect x="-15.097" y="0.787" width="10.697" height="11.121" style="fill:none;"/>
            <clipPath id="_clip1">
                <rect x="-15.097" y="0.787" width="10.697" height="11.121"/>
            </clipPath>
            <g clip-path="url(#_clip1)">
                <g transform="matrix(0.391767,0,0,0.416391,-43.1614,-16.5941)">
                    <path d="M98.94,48.419L98.94,61.773C98.94,65.458 95.882,68.45 92.114,68.45L78.462,68.45C74.695,68.45 71.636,65.458 71.636,61.773L71.636,48.419C71.636,44.734 74.695,41.743 78.462,41.743L92.114,41.743C95.882,41.743 98.94,44.734 98.94,48.419ZM96.466,48.419C96.466,46.07 94.516,44.163 92.114,44.163L78.462,44.163C76.06,44.163 74.11,46.07 74.11,48.419L74.11,61.773C74.11,64.122 76.06,66.03 78.462,66.03L92.114,66.03C94.516,66.03 96.466,64.122 96.466,61.773L96.466,48.419Z" style="fill:rgb(253,150,0);"/>
                </g>
                <g transform="matrix(0.334279,0,0,0.347524,-18.3085,-0.144498)">
                    <g transform="matrix(20.88,0,0,24,11.6286,27.2968)">
                        <path d="M0.144,-0.068L0.298,-0.068L0.298,-0.557C0.298,-0.571 0.298,-0.586 0.299,-0.601L0.171,-0.492C0.168,-0.489 0.164,-0.487 0.161,-0.486C0.158,-0.485 0.155,-0.484 0.152,-0.484C0.147,-0.484 0.142,-0.485 0.138,-0.487C0.134,-0.489 0.131,-0.492 0.129,-0.495L0.101,-0.534L0.314,-0.718L0.387,-0.718L0.387,-0.068L0.528,-0.068L0.528,-0L0.144,-0L0.144,-0.068Z" style="fill:rgb(253,150,0);fill-rule:nonzero;"/>
                    </g>
                    <g transform="matrix(20.88,0,0,24,22.695,27.2968)">
                        <path d="M0.708,-0.358C0.708,-0.304 0.7,-0.256 0.683,-0.212C0.666,-0.167 0.642,-0.13 0.611,-0.099C0.58,-0.067 0.542,-0.043 0.499,-0.026C0.456,-0.009 0.408,-0 0.355,-0L0.087,-0L0.087,-0.717L0.355,-0.717C0.408,-0.717 0.456,-0.708 0.499,-0.691C0.542,-0.674 0.58,-0.649 0.611,-0.618C0.642,-0.586 0.666,-0.549 0.683,-0.505C0.7,-0.46 0.708,-0.412 0.708,-0.358ZM0.609,-0.358C0.609,-0.402 0.603,-0.441 0.591,-0.476C0.579,-0.511 0.562,-0.54 0.54,-0.564C0.518,-0.588 0.491,-0.606 0.46,-0.619C0.428,-0.632 0.393,-0.638 0.355,-0.638L0.185,-0.638L0.185,-0.079L0.355,-0.079C0.393,-0.079 0.428,-0.085 0.46,-0.098C0.491,-0.11 0.518,-0.128 0.54,-0.152C0.562,-0.176 0.579,-0.205 0.591,-0.24C0.603,-0.275 0.609,-0.314 0.609,-0.358Z" style="fill:rgb(253,150,0);fill-rule:nonzero;"/>
                    </g>
                </g>
            </g>
        </g>
    </g>
</svg>
