<?xml version="1.0" encoding="UTF-8" standalone="no"?>
<!DOCTYPE svg PUBLIC "-//W3C//DTD SVG 1.1//EN" "http://www.w3.org/Graphics/SVG/1.1/DTD/svg11.dtd">
<svg width="100%" height="100%" viewBox="0 0 32 32" version="1.1" xmlns="http://www.w3.org/2000/svg" xmlns:xlink="http://www.w3.org/1999/xlink" xml:space="preserve" xmlns:serif="http://www.serif.com/" style="fill-rule:evenodd;clip-rule:evenodd;stroke-linejoin:round;stroke-miterlimit:2;">
    <g transform="matrix(1,0,0,1,-34.1415,-77.6972)">
        <g id="vt_axis3d" transform="matrix(2.99151,0,0,2.8775,79.3037,75.4322)">
            <rect x="-15.097" y="0.787" width="10.697" height="11.121" style="fill:none;"/>
            <clipPath id="_clip1">
                <rect x="-15.097" y="0.787" width="10.697" height="11.121"/>
            </clipPath>
            <g clip-path="url(#_clip1)">
                <g transform="matrix(0.391767,0,0,0.416391,-43.1614,-16.5941)">
                    <path d="M98.94,48.419L98.94,61.773C98.94,65.458 95.882,68.45 92.114,68.45L78.462,68.45C74.695,68.45 71.636,65.458 71.636,61.773L71.636,48.419C71.636,44.734 74.695,41.743 78.462,41.743L92.114,41.743C95.882,41.743 98.94,44.734 98.94,48.419ZM96.466,48.419C96.466,46.07 94.516,44.163 92.114,44.163L78.462,44.163C76.06,44.163 74.11,46.07 74.11,48.419L74.11,61.773C74.11,64.122 76.06,66.03 78.462,66.03L92.114,66.03C94.516,66.03 96.466,64.122 96.466,61.773L96.466,48.419Z" style="fill:rgb(253,150,0);"/>
                </g>
                <g transform="matrix(0.334279,0,0,0.347524,-18.1375,-0.117391)">
                    <g transform="matrix(20.88,0,0,24,11.6286,27.2968)">
                        <path d="M0.31,-0.725C0.34,-0.725 0.368,-0.72 0.394,-0.712C0.42,-0.703 0.442,-0.691 0.46,-0.675C0.479,-0.659 0.493,-0.639 0.504,-0.617C0.514,-0.594 0.519,-0.569 0.519,-0.541C0.519,-0.518 0.516,-0.498 0.51,-0.48C0.504,-0.462 0.496,-0.447 0.485,-0.433C0.474,-0.42 0.461,-0.408 0.446,-0.399C0.431,-0.39 0.413,-0.382 0.395,-0.377C0.441,-0.364 0.476,-0.343 0.5,-0.315C0.523,-0.286 0.535,-0.249 0.535,-0.206C0.535,-0.173 0.529,-0.143 0.516,-0.117C0.504,-0.09 0.487,-0.068 0.465,-0.049C0.443,-0.031 0.418,-0.017 0.389,-0.007C0.36,0.003 0.33,0.008 0.297,0.008C0.259,0.008 0.226,0.003 0.199,-0.006C0.172,-0.016 0.149,-0.029 0.131,-0.046C0.112,-0.062 0.097,-0.082 0.085,-0.105C0.073,-0.128 0.062,-0.152 0.054,-0.179L0.092,-0.195C0.099,-0.198 0.106,-0.2 0.113,-0.2C0.12,-0.2 0.126,-0.198 0.131,-0.195C0.136,-0.192 0.14,-0.188 0.143,-0.182C0.143,-0.181 0.146,-0.175 0.147,-0.173C0.151,-0.163 0.157,-0.152 0.164,-0.14C0.17,-0.128 0.179,-0.117 0.191,-0.106C0.202,-0.095 0.216,-0.086 0.233,-0.079C0.25,-0.072 0.271,-0.068 0.296,-0.068C0.321,-0.068 0.342,-0.072 0.361,-0.08C0.38,-0.088 0.396,-0.099 0.408,-0.112C0.421,-0.125 0.43,-0.139 0.437,-0.156C0.443,-0.171 0.446,-0.187 0.446,-0.203C0.446,-0.222 0.443,-0.24 0.438,-0.256C0.433,-0.272 0.424,-0.286 0.41,-0.298C0.397,-0.309 0.378,-0.318 0.354,-0.325C0.33,-0.332 0.3,-0.335 0.263,-0.335L0.263,-0.4C0.293,-0.4 0.319,-0.403 0.34,-0.41C0.362,-0.416 0.379,-0.424 0.393,-0.436C0.407,-0.447 0.417,-0.46 0.423,-0.475C0.429,-0.49 0.432,-0.507 0.432,-0.526C0.432,-0.547 0.429,-0.565 0.422,-0.58C0.416,-0.595 0.407,-0.608 0.396,-0.618C0.384,-0.628 0.371,-0.635 0.355,-0.641C0.34,-0.646 0.323,-0.648 0.305,-0.648C0.287,-0.648 0.27,-0.645 0.255,-0.64C0.24,-0.635 0.226,-0.627 0.214,-0.618C0.202,-0.608 0.193,-0.597 0.185,-0.584C0.177,-0.571 0.171,-0.556 0.167,-0.541C0.164,-0.531 0.16,-0.524 0.155,-0.52C0.149,-0.516 0.142,-0.514 0.134,-0.514C0.132,-0.514 0.131,-0.514 0.129,-0.514C0.127,-0.514 0.125,-0.514 0.123,-0.515L0.076,-0.523C0.081,-0.555 0.09,-0.584 0.103,-0.609C0.116,-0.634 0.133,-0.656 0.154,-0.673C0.174,-0.69 0.198,-0.702 0.224,-0.711C0.251,-0.72 0.279,-0.725 0.31,-0.725Z" style="fill:rgb(253,150,0);fill-rule:nonzero;"/>
                    </g>
                    <g transform="matrix(20.88,0,0,24,22.695,27.2968)">
                        <path d="M0.708,-0.358C0.708,-0.304 0.7,-0.256 0.683,-0.212C0.666,-0.167 0.642,-0.13 0.611,-0.099C0.58,-0.067 0.542,-0.043 0.499,-0.026C0.456,-0.009 0.408,-0 0.355,-0L0.087,-0L0.087,-0.717L0.355,-0.717C0.408,-0.717 0.456,-0.708 0.499,-0.691C0.542,-0.674 0.58,-0.649 0.611,-0.618C0.642,-0.586 0.666,-0.549 0.683,-0.505C0.7,-0.46 0.708,-0.412 0.708,-0.358ZM0.609,-0.358C0.609,-0.402 0.603,-0.441 0.591,-0.476C0.579,-0.511 0.562,-0.54 0.54,-0.564C0.518,-0.588 0.491,-0.606 0.46,-0.619C0.428,-0.632 0.393,-0.638 0.355,-0.638L0.185,-0.638L0.185,-0.079L0.355,-0.079C0.393,-0.079 0.428,-0.085 0.46,-0.098C0.491,-0.11 0.518,-0.128 0.54,-0.152C0.562,-0.176 0.579,-0.205 0.591,-0.24C0.603,-0.275 0.609,-0.314 0.609,-0.358Z" style="fill:rgb(253,150,0);fill-rule:nonzero;"/>
                    </g>
                </g>
            </g>
        </g>
    </g>
</svg>
