<?xml version="1.0" encoding="UTF-8" standalone="no"?>
<!DOCTYPE svg PUBLIC "-//W3C//DTD SVG 1.1//EN" "http://www.w3.org/Graphics/SVG/1.1/DTD/svg11.dtd">
<svg width="100%" height="100%" viewBox="0 0 32 32" version="1.1" xmlns="http://www.w3.org/2000/svg" xmlns:xlink="http://www.w3.org/1999/xlink" xml:space="preserve" xmlns:serif="http://www.serif.com/" style="fill-rule:evenodd;clip-rule:evenodd;stroke-linejoin:round;stroke-miterlimit:2;">
    <g transform="matrix(1,0,0,1,-70.3759,-40.0231)">
        <g id="vt_bool" transform="matrix(2.99151,0,0,2.8775,115.538,37.7582)">
            <rect x="-15.097" y="0.787" width="10.697" height="11.121" style="fill:none;"/>
            <clipPath id="_clip1">
                <rect x="-15.097" y="0.787" width="10.697" height="11.121"/>
            </clipPath>
            <g clip-path="url(#_clip1)">
                <g transform="matrix(0.391767,0,0,0.416391,-43.1614,-16.5941)">
                    <path d="M98.94,48.419L98.94,61.773C98.94,65.458 95.882,68.45 92.114,68.45L78.462,68.45C74.695,68.45 71.636,65.458 71.636,61.773L71.636,48.419C71.636,44.734 74.695,41.743 78.462,41.743L92.114,41.743C95.882,41.743 98.94,44.734 98.94,48.419ZM96.466,48.419C96.466,46.07 94.516,44.163 92.114,44.163L78.462,44.163C76.06,44.163 74.11,46.07 74.11,48.419L74.11,61.773C74.11,64.122 76.06,66.03 78.462,66.03L92.114,66.03C94.516,66.03 96.466,64.122 96.466,61.773L96.466,48.419Z" style="fill:rgb(253,150,0);"/>
                </g>
                <g transform="matrix(0.334279,0,0,0.347524,-16.1271,-0.158791)">
                    <g transform="matrix(24,0,0,24,11.6286,27.2968)">
                        <path d="M0.087,-0L0.087,-0.717L0.316,-0.717C0.36,-0.717 0.397,-0.712 0.429,-0.704C0.461,-0.695 0.487,-0.683 0.508,-0.667C0.528,-0.651 0.543,-0.631 0.553,-0.608C0.563,-0.585 0.568,-0.559 0.568,-0.53C0.568,-0.512 0.565,-0.495 0.56,-0.479C0.554,-0.462 0.546,-0.447 0.535,-0.433C0.524,-0.419 0.51,-0.407 0.493,-0.396C0.476,-0.385 0.456,-0.376 0.434,-0.369C0.486,-0.358 0.525,-0.339 0.552,-0.312C0.579,-0.285 0.592,-0.249 0.592,-0.204C0.592,-0.174 0.586,-0.146 0.575,-0.121C0.564,-0.096 0.548,-0.075 0.526,-0.057C0.505,-0.039 0.478,-0.025 0.447,-0.015C0.416,-0.005 0.381,-0 0.341,-0L0.087,-0ZM0.184,-0.327L0.184,-0.077L0.339,-0.077C0.367,-0.077 0.39,-0.08 0.41,-0.087C0.43,-0.093 0.446,-0.102 0.459,-0.113C0.472,-0.125 0.482,-0.138 0.488,-0.154C0.494,-0.17 0.497,-0.188 0.497,-0.207C0.497,-0.244 0.483,-0.273 0.457,-0.294C0.431,-0.316 0.392,-0.327 0.339,-0.327L0.184,-0.327ZM0.184,-0.396L0.312,-0.396C0.339,-0.396 0.363,-0.399 0.383,-0.405C0.403,-0.411 0.42,-0.419 0.433,-0.43C0.446,-0.44 0.456,-0.453 0.462,-0.468C0.468,-0.483 0.472,-0.5 0.472,-0.518C0.472,-0.56 0.459,-0.591 0.434,-0.611C0.408,-0.63 0.369,-0.64 0.316,-0.64L0.184,-0.64L0.184,-0.396Z" style="fill:rgb(253,150,0);fill-rule:nonzero;"/>
                    </g>
                </g>
            </g>
        </g>
    </g>
</svg>
