<?xml version="1.0" encoding="UTF-8" standalone="no"?>
<!DOCTYPE svg PUBLIC "-//W3C//DTD SVG 1.1//EN" "http://www.w3.org/Graphics/SVG/1.1/DTD/svg11.dtd">
<svg width="100%" height="100%" viewBox="0 0 32 32" version="1.1" xmlns="http://www.w3.org/2000/svg" xmlns:xlink="http://www.w3.org/1999/xlink" xml:space="preserve" xmlns:serif="http://www.serif.com/" style="fill-rule:evenodd;clip-rule:evenodd;stroke-linejoin:round;stroke-miterlimit:2;">
    <g transform="matrix(1,0,0,1,-70.6587,-77.6972)">
        <g id="action_warning" transform="matrix(2.99151,0,0,2.8775,115.821,75.4322)">
            <rect x="-15.097" y="0.787" width="10.697" height="11.121" style="fill:none;"/>
            <g transform="matrix(0.334279,0,0,0.347524,-14.8308,0.994936)">
                <g transform="matrix(20.88,0,0,24,11.6286,27.2968)">
                    <path d="M0.215,-0.717L0.215,-0.431C0.215,-0.416 0.215,-0.401 0.214,-0.387C0.214,-0.372 0.213,-0.358 0.212,-0.343C0.211,-0.329 0.21,-0.314 0.208,-0.299C0.207,-0.284 0.205,-0.267 0.203,-0.25L0.143,-0.25C0.141,-0.267 0.139,-0.284 0.137,-0.299C0.136,-0.314 0.135,-0.329 0.134,-0.343C0.133,-0.358 0.132,-0.372 0.131,-0.387C0.131,-0.401 0.131,-0.416 0.131,-0.431L0.131,-0.717L0.215,-0.717ZM0.109,-0.055C0.109,-0.064 0.111,-0.072 0.114,-0.08C0.117,-0.087 0.121,-0.094 0.127,-0.1C0.132,-0.105 0.139,-0.11 0.147,-0.113C0.154,-0.116 0.162,-0.118 0.171,-0.118C0.18,-0.118 0.188,-0.116 0.196,-0.113C0.203,-0.11 0.21,-0.105 0.216,-0.1C0.221,-0.094 0.226,-0.087 0.229,-0.08C0.232,-0.072 0.234,-0.064 0.234,-0.055C0.234,-0.046 0.232,-0.038 0.229,-0.03C0.226,-0.023 0.221,-0.016 0.216,-0.011C0.21,-0.005 0.203,-0 0.196,0.003C0.188,0.006 0.18,0.008 0.171,0.008C0.162,0.008 0.154,0.006 0.147,0.003C0.139,-0 0.132,-0.005 0.127,-0.011C0.121,-0.016 0.117,-0.023 0.114,-0.03C0.111,-0.038 0.109,-0.046 0.109,-0.055Z" style="fill:rgb(253,150,0);fill-rule:nonzero;"/>
                </g>
            </g>
            <g transform="matrix(0.604147,0,0,0.347524,-66.4208,-26.2145)">
                <path d="M93.806,77.697L102.659,109.697L84.953,109.697L93.806,77.697ZM93.806,83.533L87.289,107.087L100.322,107.087L93.806,83.533Z" style="fill:rgb(253,150,0);"/>
            </g>
        </g>
    </g>
</svg>
