<?xml version="1.0" encoding="UTF-8" standalone="no"?>
<!DOCTYPE svg PUBLIC "-//W3C//DTD SVG 1.1//EN" "http://www.w3.org/Graphics/SVG/1.1/DTD/svg11.dtd">
<svg width="100%" height="100%" viewBox="0 0 32 32" version="1.1" xmlns="http://www.w3.org/2000/svg" xmlns:xlink="http://www.w3.org/1999/xlink" xml:space="preserve" xmlns:serif="http://www.serif.com/" style="fill-rule:evenodd;clip-rule:evenodd;stroke-linejoin:round;stroke-miterlimit:2;">
    <g transform="matrix(1.07241,0,0,1.07396,-3.11767,-2.34767)">
        <path d="M17.827,2.164C26.061,2.164 32.747,8.85 32.747,17.084C32.747,25.319 26.061,32.004 17.827,32.004C9.592,32.004 2.907,25.319 2.907,17.084C2.907,8.85 9.592,2.164 17.827,2.164ZM17.827,4.857C11.08,4.857 5.604,10.337 5.604,17.084C5.604,23.831 11.08,29.311 17.827,29.311C24.574,29.311 30.05,23.831 30.05,17.084C30.05,10.337 24.574,4.857 17.827,4.857Z" style="fill:rgb(253,150,0);"/>
    </g>
    <g transform="matrix(1,0,0,1,-5.23265,-2.69876)">
        <g transform="matrix(24,0,0,24,11.6286,27.2968)">
            <path d="M0.407,-0.071C0.426,-0.071 0.444,-0.071 0.46,-0.073C0.476,-0.075 0.491,-0.078 0.506,-0.082C0.52,-0.085 0.533,-0.09 0.546,-0.095C0.559,-0.1 0.571,-0.106 0.584,-0.113L0.584,-0.271L0.473,-0.271C0.467,-0.271 0.462,-0.272 0.458,-0.276C0.454,-0.28 0.452,-0.284 0.452,-0.29L0.452,-0.345L0.672,-0.345L0.672,-0.07C0.654,-0.057 0.635,-0.045 0.616,-0.036C0.596,-0.026 0.575,-0.018 0.553,-0.011C0.531,-0.005 0.507,0 0.482,0.003C0.457,0.006 0.429,0.008 0.4,0.008C0.347,0.008 0.3,-0.001 0.257,-0.019C0.213,-0.037 0.176,-0.062 0.145,-0.094C0.113,-0.126 0.089,-0.165 0.071,-0.21C0.054,-0.255 0.045,-0.304 0.045,-0.358C0.045,-0.413 0.054,-0.463 0.071,-0.508C0.088,-0.553 0.112,-0.591 0.144,-0.623C0.176,-0.655 0.215,-0.68 0.26,-0.698C0.305,-0.716 0.356,-0.725 0.412,-0.725C0.44,-0.725 0.466,-0.722 0.491,-0.718C0.515,-0.714 0.537,-0.708 0.558,-0.7C0.579,-0.692 0.598,-0.683 0.616,-0.672C0.634,-0.661 0.65,-0.648 0.666,-0.634L0.638,-0.59C0.632,-0.581 0.625,-0.577 0.616,-0.577C0.611,-0.577 0.605,-0.578 0.599,-0.582C0.59,-0.587 0.581,-0.592 0.571,-0.599C0.56,-0.606 0.548,-0.612 0.533,-0.618C0.518,-0.624 0.5,-0.63 0.48,-0.634C0.46,-0.638 0.436,-0.641 0.409,-0.641C0.368,-0.641 0.332,-0.634 0.299,-0.621C0.266,-0.608 0.239,-0.589 0.216,-0.564C0.193,-0.54 0.175,-0.51 0.163,-0.475C0.15,-0.44 0.144,-0.401 0.144,-0.358C0.144,-0.313 0.15,-0.272 0.163,-0.237C0.176,-0.201 0.194,-0.171 0.218,-0.147C0.241,-0.122 0.269,-0.103 0.301,-0.09C0.333,-0.077 0.368,-0.071 0.407,-0.071Z" style="fill:rgb(253,150,0);fill-rule:nonzero;"/>
        </g>
    </g>
</svg>
