<?xml version="1.0" encoding="UTF-8" standalone="no"?>
<!DOCTYPE svg PUBLIC "-//W3C//DTD SVG 1.1//EN" "http://www.w3.org/Graphics/SVG/1.1/DTD/svg11.dtd">
<svg width="100%" height="100%" viewBox="0 0 32 32" version="1.1" xmlns="http://www.w3.org/2000/svg" xmlns:xlink="http://www.w3.org/1999/xlink" xml:space="preserve" xmlns:serif="http://www.serif.com/" style="fill-rule:evenodd;clip-rule:evenodd;stroke-linejoin:round;stroke-miterlimit:2;">
    <g transform="matrix(1.52323,0,0,1.5171,-6.78788,-8.07906)">
        <path d="M15.976,5.375L16.311,7.01C16.958,7.11 17.593,7.281 18.203,7.52L19.308,6.271C19.926,6.553 20.515,6.895 21.067,7.291L20.543,8.876C21.054,9.287 21.519,9.753 21.928,10.267L23.506,9.74C23.901,10.294 24.241,10.886 24.522,11.507L23.279,12.615C23.517,13.228 23.687,13.866 23.786,14.516L25.415,14.852C25.481,15.53 25.481,16.213 25.415,16.892L23.786,17.228C23.687,17.878 23.517,18.515 23.279,19.128L24.522,20.237C24.241,20.857 23.901,21.449 23.506,22.004L21.928,21.477C21.519,21.99 21.054,22.457 20.543,22.868L21.067,24.452C20.515,24.849 19.926,25.19 19.308,25.472L18.203,24.224C17.593,24.463 16.958,24.634 16.311,24.733L15.976,26.369C15.3,26.435 14.62,26.435 13.944,26.369L13.61,24.733C12.962,24.634 12.327,24.463 11.717,24.224L10.613,25.472C9.995,25.19 9.405,24.849 8.853,24.452L9.378,22.868C8.867,22.457 8.402,21.99 7.992,21.477L6.414,22.004C6.019,21.449 5.679,20.857 5.398,20.237L6.642,19.128C6.404,18.515 6.234,17.878 6.135,17.228L4.505,16.892C4.44,16.213 4.44,15.53 4.505,14.852L6.135,14.516C6.234,13.866 6.404,13.228 6.642,12.615L5.398,11.507C5.679,10.886 6.019,10.294 6.414,9.74L7.992,10.267C8.402,9.753 8.867,9.287 9.378,8.876L8.853,7.291C9.405,6.895 9.995,6.553 10.613,6.271L11.717,7.52C12.327,7.281 12.962,7.11 13.61,7.01L13.944,5.375C14.62,5.309 15.3,5.309 15.976,5.375ZM20.25,20.88L15.736,9.545L14.184,9.545L9.67,20.88L10.852,20.88C10.983,20.88 11.093,20.843 11.183,20.769C11.272,20.695 11.335,20.611 11.372,20.516L12.427,17.779L17.493,17.779L18.549,20.516C18.591,20.622 18.654,20.709 18.738,20.777C18.822,20.846 18.932,20.88 19.069,20.88L20.25,20.88ZM12.853,16.672L14.625,12.068C14.678,11.931 14.73,11.773 14.783,11.594C14.841,11.409 14.899,11.209 14.956,10.993C15.067,11.42 15.179,11.776 15.295,12.061L17.068,16.672L12.853,16.672Z" style="fill:rgb(253,150,0);"/>
    </g>
</svg>
