<?xml version="1.0" encoding="UTF-8" standalone="no"?>
<!DOCTYPE svg PUBLIC "-//W3C//DTD SVG 1.1//EN" "http://www.w3.org/Graphics/SVG/1.1/DTD/svg11.dtd">
<svg width="100%" height="100%" viewBox="0 0 512 512" version="1.1" xmlns="http://www.w3.org/2000/svg" xmlns:xlink="http://www.w3.org/1999/xlink" xml:space="preserve" xmlns:serif="http://www.serif.com/" style="fill-rule:evenodd;clip-rule:evenodd;stroke-linecap:round;stroke-linejoin:round;stroke-miterlimit:1.5;">
    <g transform="matrix(1.23757,0,0,1.23757,-76.4057,-89.0918)">
        <path d="M287.809,81.398L292.722,121.457C304.291,123.227 315.63,126.266 326.535,130.517L350.819,98.282C362.507,103.596 373.651,110.03 384.097,117.494L368.322,154.643C377.456,161.961 385.757,170.262 393.075,179.396L430.223,163.621C437.688,174.067 444.122,185.211 449.436,196.899L417.201,221.183C421.452,232.087 424.49,243.426 426.261,254.995L466.32,259.909C467.561,272.687 467.561,285.556 466.32,298.334L426.261,303.248C424.49,314.817 421.452,326.156 417.201,337.06L449.436,361.344C444.122,373.032 437.688,384.176 430.223,394.622L393.075,378.847C385.757,387.981 377.456,396.282 368.322,403.6L384.097,440.749C373.651,448.213 362.507,454.647 350.819,459.961L326.535,427.726C315.63,431.977 304.291,435.015 292.722,436.786L287.809,476.845C275.031,478.087 262.162,478.087 249.384,476.845L244.47,436.786C232.901,435.015 221.562,431.977 210.658,427.726L186.373,459.961C174.686,454.647 163.541,448.213 153.096,440.749L168.87,403.6C159.736,396.282 151.436,387.981 144.118,378.847L106.969,394.622C99.505,384.176 93.07,373.032 87.756,361.344L119.992,337.06C115.741,326.156 112.702,314.817 110.932,303.248L70.873,298.334C69.631,285.556 69.631,272.687 70.873,259.909L110.932,254.995C112.702,243.426 115.741,232.087 119.992,221.183L87.756,196.899C93.07,185.211 99.505,174.067 106.969,163.621L144.118,179.396C151.436,170.262 159.736,161.961 168.87,154.643L153.096,117.494C163.541,110.03 174.686,103.596 186.373,98.282L210.658,130.517C221.562,126.266 232.901,123.227 244.47,121.457L249.384,81.398C262.162,80.156 275.031,80.156 287.809,81.398ZM268.596,201.105C311.655,201.105 346.612,236.063 346.612,279.121C346.612,322.18 311.655,357.138 268.596,357.138C225.538,357.138 190.58,322.18 190.58,279.121C190.58,236.063 225.538,201.105 268.596,201.105Z" style="fill:url(#_Linear1);stroke:black;stroke-width:9.7px;"/>
    </g>
    <defs>
        <linearGradient id="_Linear1" x1="0" y1="0" x2="1" y2="0" gradientUnits="userSpaceOnUse" gradientTransform="matrix(397.309,0,0,397.309,69.9416,279.121)"><stop offset="0" style="stop-color:white;stop-opacity:1"/><stop offset="1" style="stop-color:rgb(128,128,128);stop-opacity:1"/></linearGradient>
    </defs>
</svg>
