<?xml version="1.0" encoding="UTF-8" standalone="no"?>
<!DOCTYPE svg PUBLIC "-//W3C//DTD SVG 1.1//EN" "http://www.w3.org/Graphics/SVG/1.1/DTD/svg11.dtd">
<svg width="100%" height="100%" viewBox="0 0 100 100" version="1.1" xmlns="http://www.w3.org/2000/svg" xmlns:xlink="http://www.w3.org/1999/xlink" xml:space="preserve" xmlns:serif="http://www.serif.com/" style="fill-rule:evenodd;clip-rule:evenodd;stroke-linejoin:round;stroke-miterlimit:2;">
    <g transform="matrix(-1.11116,-1.36078e-16,2.21125e-16,-1.80562,108.874,147.824)">
        <path d="M63.006,48.01L76.285,48.01L76.285,41.379L97.082,54.178L76.285,66.976L76.285,60.345L63.006,60.345L63.006,68.517L73.781,68.517L52.984,81.315L32.187,68.517L42.962,68.517L42.962,60.345L29.683,60.345L29.683,66.976L8.886,54.178L29.683,41.379L29.683,48.01L42.962,48.01L42.962,39.839L32.187,39.839L52.984,27.04L73.781,39.839L63.006,39.839L63.006,48.01Z" style="fill:rgb(224,39,39);"/>
        <path d="M63.006,48.01L76.285,48.01L76.285,41.379L97.082,54.178L76.285,66.976L76.285,60.345L63.006,60.345L63.006,68.517L73.781,68.517L52.984,81.315L32.187,68.517L42.962,68.517L42.962,60.345L29.683,60.345L29.683,66.976L8.886,54.178L29.683,41.379L29.683,48.01L42.962,48.01L42.962,39.839L32.187,39.839L52.984,27.04L73.781,39.839L63.006,39.839L63.006,48.01ZM58.857,48.01L58.857,39.839C58.857,38.429 60.715,37.286 63.006,37.286L63.766,37.286L52.984,30.651C52.984,30.651 42.202,37.286 42.202,37.286L42.962,37.286C45.253,37.286 47.111,38.429 47.111,39.839L47.111,48.01C47.111,49.42 45.253,50.563 42.962,50.563L29.683,50.563C27.392,50.563 25.535,49.42 25.535,48.01L25.535,47.543L14.753,54.178C14.753,54.178 25.535,60.813 25.535,60.813L25.535,60.345C25.535,58.935 27.392,57.792 29.683,57.792L42.962,57.792C45.253,57.792 47.111,58.935 47.111,60.345L47.111,68.517C47.111,69.927 45.253,71.07 42.962,71.07L42.202,71.07L52.984,77.705C52.984,77.705 63.766,71.07 63.766,71.07L63.006,71.07C60.715,71.07 58.857,69.927 58.857,68.517L58.857,60.345C58.857,58.935 60.715,57.792 63.006,57.792L76.285,57.792C78.576,57.792 80.433,58.935 80.433,60.345L80.433,60.813L91.215,54.178C91.215,54.178 80.433,47.543 80.433,47.543L80.433,48.01C80.433,49.42 78.576,50.563 76.285,50.563L63.006,50.563C60.715,50.563 58.857,49.42 58.857,48.01Z" style="fill:rgb(64,64,64);"/>
    </g>
</svg>
