<?xml version="1.0" encoding="UTF-8" standalone="no"?>
<!DOCTYPE svg PUBLIC "-//W3C//DTD SVG 1.1//EN" "http://www.w3.org/Graphics/SVG/1.1/DTD/svg11.dtd">
<svg width="100%" height="100%" viewBox="0 0 100 100" version="1.1" xmlns="http://www.w3.org/2000/svg" xmlns:xlink="http://www.w3.org/1999/xlink" xml:space="preserve" xmlns:serif="http://www.serif.com/" style="fill-rule:evenodd;clip-rule:evenodd;stroke-linejoin:round;stroke-miterlimit:2;">
    <g transform="matrix(-1.11116,-1.36078e-16,2.70945e-16,-2.21244,108.874,169.865)">
        <path d="M8.886,60.345L8.886,48.01L71.599,48.01L71.599,41.379L97.082,54.178L71.599,66.976L71.599,60.345L8.886,60.345Z" style="fill:rgb(224,39,39);"/>
        <path d="M8.886,60.345L8.886,48.01L71.599,48.01L71.599,41.379L97.082,54.178L71.599,66.976L71.599,60.345L8.886,60.345ZM13.034,58.262L71.599,58.262C73.89,58.262 75.748,59.194 75.748,60.345L75.748,61.946L91.215,54.178L75.748,46.409L75.748,48.01C75.748,49.161 73.89,50.094 71.599,50.094L13.034,50.094L13.034,58.262Z" style="fill:rgb(64,64,64);"/>
    </g>
</svg>
