<?xml version="1.0" encoding="UTF-8" standalone="no"?>
<!DOCTYPE svg PUBLIC "-//W3C//DTD SVG 1.1//EN" "http://www.w3.org/Graphics/SVG/1.1/DTD/svg11.dtd">
<svg width="100%" height="100%" viewBox="0 0 32 32" version="1.1" xmlns="http://www.w3.org/2000/svg" xmlns:xlink="http://www.w3.org/1999/xlink" xml:space="preserve" xmlns:serif="http://www.serif.com/" style="fill-rule:evenodd;clip-rule:evenodd;stroke-linejoin:round;stroke-miterlimit:2;">
    <g transform="matrix(1.07241,0,0,1.07396,-3.11767,-2.34767)">
        <path d="M17.827,2.164C26.061,2.164 32.747,8.85 32.747,17.084C32.747,25.319 26.061,32.004 17.827,32.004C9.592,32.004 2.907,25.319 2.907,17.084C2.907,8.85 9.592,2.164 17.827,2.164ZM17.827,4.857C11.08,4.857 5.604,10.337 5.604,17.084C5.604,23.831 11.08,29.311 17.827,29.311C24.574,29.311 30.05,23.831 30.05,17.084C30.05,10.337 24.574,4.857 17.827,4.857Z" style="fill:rgb(253,150,0);"/>
    </g>
    <g transform="matrix(1,0,0,1,-6.66265,-2.69876)">
        <g transform="matrix(24,0,0,24,11.6286,27.2968)">
            <path d="M0.44,-0.259C0.444,-0.251 0.448,-0.243 0.452,-0.234C0.455,-0.225 0.459,-0.216 0.462,-0.207C0.465,-0.216 0.469,-0.225 0.473,-0.234C0.476,-0.242 0.48,-0.251 0.485,-0.26L0.728,-0.7C0.732,-0.708 0.736,-0.712 0.741,-0.714C0.746,-0.716 0.752,-0.717 0.761,-0.717L0.833,-0.717L0.833,-0L0.748,-0L0.748,-0.527C0.748,-0.534 0.748,-0.541 0.748,-0.549C0.748,-0.557 0.749,-0.565 0.75,-0.574L0.504,-0.126C0.496,-0.111 0.484,-0.103 0.469,-0.103L0.455,-0.103C0.44,-0.103 0.428,-0.111 0.42,-0.126L0.169,-0.575C0.17,-0.566 0.171,-0.558 0.171,-0.55C0.172,-0.541 0.172,-0.534 0.172,-0.527L0.172,-0L0.087,-0L0.087,-0.717L0.159,-0.717C0.167,-0.717 0.174,-0.716 0.179,-0.714C0.183,-0.712 0.188,-0.708 0.192,-0.7L0.44,-0.259Z" style="fill:rgb(253,150,0);fill-rule:nonzero;"/>
        </g>
    </g>
</svg>
